<?xml version="1.0" encoding="UTF-8" standalone="no"?>
<!DOCTYPE svg PUBLIC "-//W3C//DTD SVG 1.1//EN" "http://www.w3.org/Graphics/SVG/1.1/DTD/svg11.dtd">
<svg width="100%" height="100%" viewBox="0 0 316 316" version="1.1" xmlns="http://www.w3.org/2000/svg" xmlns:xlink="http://www.w3.org/1999/xlink" xml:space="preserve" xmlns:serif="http://www.serif.com/" style="fill-rule:evenodd;clip-rule:evenodd;stroke-linecap:round;stroke-linejoin:round;stroke-miterlimit:1.5;">
    <g transform="matrix(1,0,0,1,-216.294,-189.02)">
        <rect x="216.294" y="189.02" width="315.817" height="315.817" style="fill:white;"/>
        <g transform="matrix(0.87901,0,0,0.87901,113.57,-2.64933)">
            <path d="M455.823,348.653L455.823,488.694C455.823,527.34 424.448,558.715 385.802,558.715L245.761,558.715C207.115,558.715 175.74,527.34 175.74,488.694L175.74,348.653C175.74,310.007 207.115,278.632 245.761,278.632L385.802,278.632C424.448,278.632 455.823,310.007 455.823,348.653Z" style="fill:rgb(25,118,210);"/>
        </g>
        <g transform="matrix(0.87901,0,0,0.87901,87.5608,-28.659)">
            <path d="M455.823,348.653L455.823,488.694C455.823,527.34 424.448,558.715 385.802,558.715L245.761,558.715C207.115,558.715 175.74,527.34 175.74,488.694L175.74,348.653C175.74,310.007 207.115,278.632 245.761,278.632L385.802,278.632C424.448,278.632 455.823,310.007 455.823,348.653Z" style="fill:none;stroke:black;stroke-width:21.33px;"/>
        </g>
        <g transform="matrix(1.37583,0,0,1.37583,-124.103,-83.2335)">
            <g transform="matrix(99.4497,0,0,99.4497,420.656,365.369)">
            </g>
            <text x="323.683px" y="365.369px" style="font-family:'Impact', sans-serif;font-stretch:condensed;font-size:99.45px;fill:white;">PY</text>
        </g>
    </g>
</svg>
